<?xml version="1.0" encoding="UTF-8"?>
<svg xmlns="http://www.w3.org/2000/svg" xmlns:xlink="http://www.w3.org/1999/xlink" width="15pt" height="15pt" viewBox="0 0 15 15" version="1.1">
<g id="surface1">
<path style=" stroke:none;fill-rule:nonzero;fill:rgb(237, 85, 101);fill-opacity:1;" d="M 10.625 6.15625 L 10.25 2.757812 L 11.542969 2.757812 C 11.945312 2.757812 12.28125 2.453125 12.28125 2.066406 L 12.28125 0.6875 C 12.28125 0.308594 11.945312 0 11.542969 0 L 3.199219 0 C 2.789062 0 2.460938 0.308594 2.460938 0.6875 L 2.460938 2.066406 C 2.460938 2.453125 2.789062 2.757812 3.199219 2.757812 L 4.492188 2.757812 L 4.117188 6.15625 C 2.628906 6.800781 1.480469 7.964844 1.480469 9.421875 C 1.480469 9.804688 1.8125 10.109375 2.21875 10.109375 L 6.390625 10.109375 L 6.390625 13.097656 C 6.390625 13.132812 6.394531 13.167969 6.414062 13.203125 L 7.148438 14.578125 C 7.242188 14.753906 7.496094 14.753906 7.589844 14.578125 L 8.328125 13.203125 C 8.347656 13.167969 8.351562 13.132812 8.351562 13.097656 L 8.351562 10.109375 L 12.523438 10.109375 C 12.929688 10.109375 13.265625 9.804688 13.265625 9.421875 C 13.265625 7.953125 12.097656 6.796875 10.625 6.15625 Z M 10.625 6.15625 "/>
</g>
</svg>
